<mxfile host="65bd71144e">
    <diagram id="keDKuoT6OYvPQVhtaFQo" name="Page-1">
        <mxGraphModel dx="1045" dy="646" grid="1" gridSize="10" guides="1" tooltips="1" connect="1" arrows="1" fold="1" page="1" pageScale="1" pageWidth="850" pageHeight="1100" math="0" shadow="0">
            <root>
                <mxCell id="0"/>
                <mxCell id="1" parent="0"/>
                <mxCell id="2" value="抽奖流程" style="swimlane;childLayout=stackLayout;resizeParent=1;resizeParentMax=0;startSize=20;" vertex="1" parent="1">
                    <mxGeometry x="50" y="80" width="1355" height="1280" as="geometry"/>
                </mxCell>
                <mxCell id="3" value="发起端" style="swimlane;startSize=20;" vertex="1" parent="2">
                    <mxGeometry y="20" width="550" height="1260" as="geometry"/>
                </mxCell>
                <mxCell id="11" value="" style="edgeStyle=none;html=1;" edge="1" parent="3">
                    <mxGeometry relative="1" as="geometry">
                        <mxPoint x="140" y="100" as="sourcePoint"/>
                        <mxPoint x="140" y="100" as="targetPoint"/>
                    </mxGeometry>
                </mxCell>
                <mxCell id="87" value="" style="edgeStyle=none;html=1;fontSize=12;" edge="1" parent="3" source="13" target="86">
                    <mxGeometry relative="1" as="geometry"/>
                </mxCell>
                <mxCell id="13" value="&lt;font style=&quot;font-size: 12px&quot;&gt;发起抽奖&lt;/font&gt;" style="rounded=1;whiteSpace=wrap;html=1;fontSize=10;" vertex="1" parent="3">
                    <mxGeometry x="165" y="40" width="120" height="60" as="geometry"/>
                </mxCell>
                <mxCell id="17" value="抽奖设置" style="rounded=1;whiteSpace=wrap;html=1;fontSize=12;" vertex="1" parent="3">
                    <mxGeometry x="165" y="255" width="120" height="60" as="geometry"/>
                </mxCell>
                <mxCell id="84" value="" style="edgeStyle=none;html=1;fontSize=12;" edge="1" parent="3" source="19" target="83">
                    <mxGeometry relative="1" as="geometry"/>
                </mxCell>
                <mxCell id="85" value="结束抽奖" style="edgeLabel;html=1;align=center;verticalAlign=middle;resizable=0;points=[];fontSize=12;" vertex="1" connectable="0" parent="84">
                    <mxGeometry x="0.1479" relative="1" as="geometry">
                        <mxPoint as="offset"/>
                    </mxGeometry>
                </mxCell>
                <mxCell id="19" value="抽奖中" style="whiteSpace=wrap;html=1;rounded=1;" vertex="1" parent="3">
                    <mxGeometry x="162.5" y="395" width="120" height="60" as="geometry"/>
                </mxCell>
                <mxCell id="20" value="" style="edgeStyle=none;html=1;fontSize=12;" edge="1" parent="3" source="17" target="19">
                    <mxGeometry relative="1" as="geometry"/>
                </mxCell>
                <mxCell id="21" value="发起抽奖" style="edgeLabel;html=1;align=center;verticalAlign=middle;resizable=0;points=[];fontSize=12;" vertex="1" connectable="0" parent="20">
                    <mxGeometry x="0.015" relative="1" as="geometry">
                        <mxPoint as="offset"/>
                    </mxGeometry>
                </mxCell>
                <mxCell id="23" value="" style="edgeStyle=none;html=1;fontSize=12;entryX=-0.01;entryY=0.623;entryDx=0;entryDy=0;entryPerimeter=0;exitX=-0.007;exitY=0.516;exitDx=0;exitDy=0;exitPerimeter=0;" edge="1" parent="3" source="86" target="19">
                    <mxGeometry relative="1" as="geometry">
                        <mxPoint x="130" y="175" as="sourcePoint"/>
                        <mxPoint x="47.5" y="175" as="targetPoint"/>
                        <Array as="points">
                            <mxPoint x="70" y="175"/>
                            <mxPoint x="70" y="432"/>
                        </Array>
                    </mxGeometry>
                </mxCell>
                <mxCell id="24" value="否" style="edgeLabel;html=1;align=center;verticalAlign=middle;resizable=0;points=[];fontSize=12;" vertex="1" connectable="0" parent="23">
                    <mxGeometry x="0.0662" y="2" relative="1" as="geometry">
                        <mxPoint as="offset"/>
                    </mxGeometry>
                </mxCell>
                <mxCell id="83" value="中奖名单" style="whiteSpace=wrap;html=1;" vertex="1" parent="3">
                    <mxGeometry x="165" y="570" width="120" height="60" as="geometry"/>
                </mxCell>
                <mxCell id="88" value="" style="edgeStyle=none;html=1;fontSize=12;" edge="1" parent="3" source="86" target="17">
                    <mxGeometry relative="1" as="geometry"/>
                </mxCell>
                <mxCell id="86" value="&lt;span&gt;上一轮抽奖是否结束&lt;/span&gt;" style="html=1;whiteSpace=wrap;aspect=fixed;shape=isoRectangle;fontSize=12;" vertex="1" parent="3">
                    <mxGeometry x="150" y="130" width="150" height="90" as="geometry"/>
                </mxCell>
                <mxCell id="14" style="edgeStyle=none;html=1;exitX=0;exitY=0.5;exitDx=0;exitDy=0;entryX=1;entryY=0.5;entryDx=0;entryDy=0;fontSize=10;" edge="1" parent="2" source="4" target="3">
                    <mxGeometry relative="1" as="geometry"/>
                </mxCell>
                <mxCell id="4" value="观看端" style="swimlane;startSize=20;" vertex="1" parent="2">
                    <mxGeometry x="550" y="20" width="805" height="1260" as="geometry"/>
                </mxCell>
                <mxCell id="33" value="" style="edgeStyle=none;html=1;fontSize=12;entryX=0.036;entryY=0.484;entryDx=0;entryDy=0;entryPerimeter=0;" edge="1" parent="4" source="27" target="43">
                    <mxGeometry relative="1" as="geometry">
                        <mxPoint x="345" y="425" as="targetPoint"/>
                    </mxGeometry>
                </mxCell>
                <mxCell id="27" value="抽奖中" style="whiteSpace=wrap;html=1;rounded=1;" vertex="1" parent="4">
                    <mxGeometry x="125" y="395" width="120" height="60" as="geometry"/>
                </mxCell>
                <mxCell id="35" value="" style="edgeStyle=none;html=1;fontSize=12;exitX=0.5;exitY=0.973;exitDx=0;exitDy=0;exitPerimeter=0;" edge="1" parent="4" source="43" target="34">
                    <mxGeometry relative="1" as="geometry">
                        <mxPoint x="385" y="465" as="sourcePoint"/>
                        <Array as="points">
                            <mxPoint x="409" y="550"/>
                        </Array>
                    </mxGeometry>
                </mxCell>
                <mxCell id="36" value="否" style="edgeLabel;html=1;align=center;verticalAlign=middle;resizable=0;points=[];fontSize=12;" vertex="1" connectable="0" parent="35">
                    <mxGeometry x="0.0178" y="-1" relative="1" as="geometry">
                        <mxPoint as="offset"/>
                    </mxGeometry>
                </mxCell>
                <mxCell id="60" value="" style="edgeStyle=none;html=1;fontSize=12;" edge="1" parent="4" source="34">
                    <mxGeometry relative="1" as="geometry">
                        <mxPoint x="410" y="710" as="targetPoint"/>
                    </mxGeometry>
                </mxCell>
                <mxCell id="34" value="参与抽奖" style="whiteSpace=wrap;html=1;rounded=1;" vertex="1" parent="4">
                    <mxGeometry x="350" y="570" width="120" height="60" as="geometry"/>
                </mxCell>
                <mxCell id="43" value="&lt;span&gt;是否口令抽奖&lt;/span&gt;" style="html=1;whiteSpace=wrap;aspect=fixed;shape=isoRectangle;fontSize=12;" vertex="1" parent="4">
                    <mxGeometry x="335" y="380" width="150" height="90" as="geometry"/>
                </mxCell>
                <mxCell id="54" value="是" style="edgeStyle=none;html=1;fontSize=12;exitX=1.004;exitY=0.495;exitDx=0;exitDy=0;exitPerimeter=0;" edge="1" parent="4" source="50">
                    <mxGeometry relative="1" as="geometry">
                        <mxPoint x="505" y="110" as="sourcePoint"/>
                        <mxPoint x="475" y="600" as="targetPoint"/>
                        <Array as="points">
                            <mxPoint x="665" y="89"/>
                            <mxPoint x="665" y="600"/>
                        </Array>
                    </mxGeometry>
                </mxCell>
                <mxCell id="57" value="" style="edgeStyle=none;html=1;fontSize=12;" edge="1" parent="4" source="50" target="56">
                    <mxGeometry relative="1" as="geometry"/>
                </mxCell>
                <mxCell id="58" value="否" style="edgeLabel;html=1;align=center;verticalAlign=middle;resizable=0;points=[];fontSize=12;" vertex="1" connectable="0" parent="57">
                    <mxGeometry x="0.1244" relative="1" as="geometry">
                        <mxPoint as="offset"/>
                    </mxGeometry>
                </mxCell>
                <mxCell id="50" value="&lt;span&gt;是否登录&lt;/span&gt;" style="html=1;whiteSpace=wrap;aspect=fixed;shape=isoRectangle;fontSize=12;" vertex="1" parent="4">
                    <mxGeometry x="335" y="46" width="140" height="84" as="geometry"/>
                </mxCell>
                <mxCell id="56" value="登录弹窗" style="whiteSpace=wrap;html=1;" vertex="1" parent="4">
                    <mxGeometry x="125" y="58" width="120" height="60" as="geometry"/>
                </mxCell>
                <mxCell id="66" value="" style="edgeStyle=none;html=1;fontSize=12;" edge="1" parent="4" source="61" target="65">
                    <mxGeometry relative="1" as="geometry"/>
                </mxCell>
                <mxCell id="67" value="否" style="edgeLabel;html=1;align=center;verticalAlign=middle;resizable=0;points=[];fontSize=12;" vertex="1" connectable="0" parent="66">
                    <mxGeometry x="-0.2842" y="-4" relative="1" as="geometry">
                        <mxPoint as="offset"/>
                    </mxGeometry>
                </mxCell>
                <mxCell id="69" value="" style="edgeStyle=none;html=1;fontSize=12;" edge="1" parent="4" source="61" target="68">
                    <mxGeometry relative="1" as="geometry"/>
                </mxCell>
                <mxCell id="61" value="是否中奖" style="html=1;whiteSpace=wrap;aspect=fixed;shape=isoRectangle;fontSize=12;" vertex="1" parent="4">
                    <mxGeometry x="335" y="710" width="150" height="90" as="geometry"/>
                </mxCell>
                <mxCell id="77" style="edgeStyle=none;html=1;entryX=0.993;entryY=0.544;entryDx=0;entryDy=0;entryPerimeter=0;fontSize=12;" edge="1" parent="4" source="65" target="76">
                    <mxGeometry relative="1" as="geometry">
                        <Array as="points">
                            <mxPoint x="645" y="1039"/>
                            <mxPoint x="495" y="1039"/>
                        </Array>
                    </mxGeometry>
                </mxCell>
                <mxCell id="65" value="未中奖" style="whiteSpace=wrap;html=1;" vertex="1" parent="4">
                    <mxGeometry x="585" y="725" width="120" height="60" as="geometry"/>
                </mxCell>
                <mxCell id="44" value="&lt;span&gt;是否聊天免登录或嵌入页&lt;/span&gt;" style="html=1;whiteSpace=wrap;aspect=fixed;shape=isoRectangle;fontSize=12;" vertex="1" parent="4">
                    <mxGeometry x="335" y="210" width="140" height="84" as="geometry"/>
                </mxCell>
                <mxCell id="45" value="" style="edgeStyle=none;html=1;fontSize=12;" edge="1" parent="4" source="43" target="44">
                    <mxGeometry relative="1" as="geometry"/>
                </mxCell>
                <mxCell id="46" value="是" style="edgeLabel;html=1;align=center;verticalAlign=middle;resizable=0;points=[];fontSize=12;" vertex="1" connectable="0" parent="45">
                    <mxGeometry x="-0.49" y="-2" relative="1" as="geometry">
                        <mxPoint as="offset"/>
                    </mxGeometry>
                </mxCell>
                <mxCell id="48" value="" style="edgeStyle=none;html=1;fontSize=12;entryX=1;entryY=0.5;entryDx=0;entryDy=0;exitX=1.01;exitY=0.495;exitDx=0;exitDy=0;exitPerimeter=0;" edge="1" parent="4" source="44" target="34">
                    <mxGeometry relative="1" as="geometry">
                        <mxPoint x="515" y="252" as="targetPoint"/>
                        <Array as="points">
                            <mxPoint x="525" y="252"/>
                            <mxPoint x="525" y="600"/>
                        </Array>
                    </mxGeometry>
                </mxCell>
                <mxCell id="49" value="是" style="edgeLabel;html=1;align=center;verticalAlign=middle;resizable=0;points=[];fontSize=12;" vertex="1" connectable="0" parent="48">
                    <mxGeometry x="-0.0325" y="-2" relative="1" as="geometry">
                        <mxPoint as="offset"/>
                    </mxGeometry>
                </mxCell>
                <mxCell id="51" value="" style="edgeStyle=none;html=1;fontSize=12;" edge="1" parent="4" source="44" target="50">
                    <mxGeometry relative="1" as="geometry"/>
                </mxCell>
                <mxCell id="52" value="否" style="edgeLabel;html=1;align=center;verticalAlign=middle;resizable=0;points=[];fontSize=12;" vertex="1" connectable="0" parent="51">
                    <mxGeometry x="-0.2" y="-1" relative="1" as="geometry">
                        <mxPoint as="offset"/>
                    </mxGeometry>
                </mxCell>
                <mxCell id="71" value="" style="edgeStyle=none;html=1;fontSize=12;" edge="1" parent="4" source="68" target="70">
                    <mxGeometry relative="1" as="geometry"/>
                </mxCell>
                <mxCell id="68" value="中奖-提示领奖" style="whiteSpace=wrap;html=1;" vertex="1" parent="4">
                    <mxGeometry x="120" y="725" width="120" height="60" as="geometry"/>
                </mxCell>
                <mxCell id="73" value="" style="edgeStyle=none;html=1;fontSize=12;" edge="1" parent="4" source="70" target="72">
                    <mxGeometry relative="1" as="geometry"/>
                </mxCell>
                <mxCell id="70" value="领奖" style="whiteSpace=wrap;html=1;" vertex="1" parent="4">
                    <mxGeometry x="120" y="865" width="120" height="60" as="geometry"/>
                </mxCell>
                <mxCell id="72" value="提交领奖" style="whiteSpace=wrap;html=1;" vertex="1" parent="4">
                    <mxGeometry x="120" y="1005" width="120" height="60" as="geometry"/>
                </mxCell>
                <mxCell id="80" value="" style="edgeStyle=none;html=1;fontSize=12;" edge="1" parent="4" source="76" target="79">
                    <mxGeometry relative="1" as="geometry"/>
                </mxCell>
                <mxCell id="81" value="是" style="edgeLabel;html=1;align=center;verticalAlign=middle;resizable=0;points=[];fontSize=12;" vertex="1" connectable="0" parent="80">
                    <mxGeometry x="-0.0316" y="-2" relative="1" as="geometry">
                        <mxPoint as="offset"/>
                    </mxGeometry>
                </mxCell>
                <mxCell id="76" value="是否可见中奖名单" style="html=1;whiteSpace=wrap;aspect=fixed;shape=isoRectangle;fontSize=12;" vertex="1" parent="4">
                    <mxGeometry x="335" y="990" width="150" height="90" as="geometry"/>
                </mxCell>
                <mxCell id="75" value="" style="edgeStyle=none;html=1;fontSize=12;" edge="1" parent="4" source="72" target="76">
                    <mxGeometry relative="1" as="geometry">
                        <mxPoint x="350" y="1035" as="targetPoint"/>
                    </mxGeometry>
                </mxCell>
                <mxCell id="79" value="中奖名单" style="whiteSpace=wrap;html=1;" vertex="1" parent="4">
                    <mxGeometry x="350" y="1175" width="120" height="60" as="geometry"/>
                </mxCell>
                <mxCell id="28" value="" style="edgeStyle=none;html=1;fontSize=12;" edge="1" parent="2" source="19" target="27">
                    <mxGeometry relative="1" as="geometry"/>
                </mxCell>
            </root>
        </mxGraphModel>
    </diagram>
</mxfile>